<svg width="5" height="16" viewBox="0 0 5 16" fill="none" xmlns="http://www.w3.org/2000/svg">
<path d="M5 2.5C5 3.88071 3.88071 5 2.5 5C1.11929 5 0 3.88071 0 2.5C0 1.11929 1.11929 0 2.5 0C3.88071 0 5 1.11929 5 2.5Z" fill="black"/>
<path d="M5 8C5 9.38071 3.88071 10.5 2.5 10.5C1.11929 10.5 0 9.38071 0 8C0 6.61929 1.11929 5.5 2.5 5.5C3.88071 5.5 5 6.61929 5 8Z" fill="black"/>
<path d="M5 13.5C5 14.8807 3.88071 16 2.5 16C1.11929 16 0 14.8807 0 13.5C0 12.1193 1.11929 11 2.5 11C3.88071 11 5 12.1193 5 13.5Z" fill="black"/>
</svg>
