<svg width="55" height="49" viewBox="0 0 55 49" fill="none" xmlns="http://www.w3.org/2000/svg">
<path d="M37.5 47V7C37.5 5.67392 36.9732 4.40215 36.0355 3.46447C35.0979 2.52678 33.8261 2 32.5 2H22.5C21.1739 2 19.9021 2.52678 18.9645 3.46447C18.0268 4.40215 17.5 5.67392 17.5 7V47M7.5 12H47.5C50.2614 12 52.5 14.2386 52.5 17V42C52.5 44.7614 50.2614 47 47.5 47H7.5C4.73858 47 2.5 44.7614 2.5 42V17C2.5 14.2386 4.73858 12 7.5 12Z" stroke="black" stroke-width="4" stroke-linecap="round" stroke-linejoin="round"/>
</svg>
