<svg width="27" height="24" viewBox="0 0 27 24" fill="none" xmlns="http://www.w3.org/2000/svg">
<path fill-rule="evenodd" clip-rule="evenodd" d="M20.25 6.21393e-09C21.283 -5.6829e-05 22.277 0.389767 23.0287 1.08971C23.7803 1.78966 24.2326 2.74681 24.2933 3.76533L24.3 4V9.8L25.1019 9.448C25.9308 9.084 26.8866 9.648 26.9919 10.512L27 10.6667V21.3333C27.0002 22.0061 26.743 22.6541 26.2798 23.1474C25.8166 23.6407 25.1818 23.9429 24.5025 23.9933L24.3 24H2.7C2.01882 24.0002 1.36274 23.7461 0.86326 23.2887C0.363785 22.8312 0.0578385 22.2042 0.00675015 21.5333L0 21.3333V10.6667C0 9.77067 0.91125 9.13733 1.75095 9.39333L1.89945 9.448L2.7 9.8V4C2.69994 2.97972 3.09464 1.99798 3.80333 1.25565C4.51203 0.513324 5.48114 0.0665233 6.5124 0.00666683L6.75 6.21393e-09H20.25ZM24.3 12.7187L14.5962 16.9773C14.2511 17.1288 13.8776 17.207 13.5 17.207C13.1224 17.207 12.7489 17.1288 12.4038 16.9773L2.7 12.72V21.3333H24.3V12.7187ZM20.25 2.66667H6.75C6.39196 2.66667 6.04858 2.80714 5.79541 3.05719C5.54223 3.30724 5.4 3.64638 5.4 4V10.9853L13.5 14.5413L21.6 10.9853V4C21.6 3.64638 21.4578 3.30724 21.2046 3.05719C20.9514 2.80714 20.608 2.66667 20.25 2.66667ZM13.5 6.66667C13.8441 6.66704 14.175 6.79717 14.4252 7.03046C14.6755 7.26376 14.826 7.5826 14.8462 7.92186C14.8663 8.26112 14.7546 8.59517 14.5337 8.85578C14.3129 9.11638 13.9996 9.28386 13.6579 9.324L13.5 9.33333H10.8C10.4559 9.33296 10.125 9.20283 9.87475 8.96954C9.62455 8.73624 9.47398 8.4174 9.45382 8.07814C9.43365 7.73888 9.54541 7.40483 9.76626 7.14422C9.9871 6.88362 10.3004 6.71614 10.6421 6.676L10.8 6.66667H13.5Z" fill="white"/>
</svg>
