<svg width="55" height="50" viewBox="0 0 55 50" fill="none" xmlns="http://www.w3.org/2000/svg">
<path d="M37.5 47.2381V42.2116C37.5 39.5454 36.4464 36.9885 34.5711 35.1032C32.6957 33.2179 30.1522 32.1587 27.5 32.1587H12.5C9.84784 32.1587 7.3043 33.2179 5.42893 35.1032C3.55357 36.9885 2.5 39.5454 2.5 42.2116V47.2381M52.5 47.2381V42.2116C52.4983 39.9842 51.7609 37.8205 50.4034 36.0601C49.0459 34.2996 47.1453 33.0423 45 32.4855M37.5 2.32672C39.651 2.88039 41.5576 4.13801 42.9191 5.90131C44.2806 7.66461 45.0196 9.8333 45.0196 12.0655C45.0196 14.2977 44.2806 16.4663 42.9191 18.2296C41.5576 19.9929 39.651 21.2506 37.5 21.8042M30 12.0529C30 17.605 25.5228 22.1058 20 22.1058C14.4772 22.1058 10 17.605 10 12.0529C10 6.50084 14.4772 2 20 2C25.5228 2 30 6.50084 30 12.0529Z" stroke="black" stroke-width="4" stroke-linecap="round" stroke-linejoin="round"/>
</svg>
