<svg width="26" height="24" viewBox="0 0 26 24" fill="none" xmlns="http://www.w3.org/2000/svg">
<path d="M13 24L11.2 22.372C8.994 20.3677 7.17033 18.6385 5.729 17.1847C4.28744 15.731 3.14133 14.4291 2.29067 13.2789C1.43978 12.1287 0.845333 11.0716 0.507333 10.1075C0.169111 9.1435 0 8.15754 0 7.14965C0 5.11306 0.677778 3.41236 2.03333 2.04755C3.38867 0.682517 5.07756 0 7.1 0C8.23978 0 9.32467 0.246154 10.3547 0.738462C11.3849 1.23077 12.2667 1.93566 13 2.85315C13.7667 1.93566 14.6556 1.23077 15.6667 0.738462C16.6778 0.246154 17.7556 0 18.9 0C20.9224 0 22.6113 0.682517 23.9667 2.04755C25.3222 3.41236 26 5.11306 26 7.14965C26 8.15754 25.8309 9.1435 25.4927 10.1075C25.1547 11.0716 24.5602 12.1287 23.7093 13.2789C22.8587 14.4291 21.7126 15.731 20.271 17.1847C18.8297 18.6385 17.006 20.3677 14.8 22.372L13 24ZM13 20.6098C15.0889 18.7077 16.8111 17.0797 18.1667 15.7259C19.5222 14.372 20.5944 13.1916 21.3833 12.1846C22.1722 11.1776 22.7222 10.2805 23.0333 9.49326C23.3444 8.70601 23.5 7.92436 23.5 7.14831C23.5 5.81774 23.0627 4.71329 22.188 3.83497C21.3133 2.95664 20.2201 2.51748 18.9083 2.51748C17.8806 2.51748 16.925 2.81399 16.0417 3.40699C15.1583 4 14.5333 4.77203 14.1667 5.72308H11.8333C11.4667 4.77203 10.8417 4 9.95833 3.40699C9.075 2.81399 8.11944 2.51748 7.09167 2.51748C5.77989 2.51748 4.68667 2.95664 3.812 3.83497C2.93733 4.71329 2.5 5.81774 2.5 7.14831C2.5 7.92436 2.65556 8.70601 2.96667 9.49326C3.27778 10.2805 3.82778 11.1776 4.61667 12.1846C5.40556 13.1916 6.47778 14.372 7.83333 15.7259C9.18889 17.0797 10.9111 18.7077 13 20.6098Z" fill="white"/>
</svg>
